<svg xmlns="http://www.w3.org/2000/svg" xmlns:xlink="http://www.w3.org/1999/xlink" viewBox="0 0 30 30" fill="#000">
  <path d="M15 0C13.35499 0 12 1.3549904 12 3L8 3C6.3550302 3 5 4.3550302 5 6L5 24C5 25.64497 6.3550302 27 8 27L22 27C23.64497 27 25 25.64497 25 24L25 6C25 4.3550302 23.64497 3 22 3L18 3C18 1.3549904 16.64501 0 15 0 z M 15 2C15.564129 2 16 2.4358706 16 3C16 3.5641294 15.564129 4 15 4C14.435871 4 14 3.5641294 14 3C14 2.4358706 14.435871 2 15 2 z M 8 5L12 5L12 6C12 6.552 12.448 7 13 7L17 7C17.552 7 18 6.552 18 6L18 5L22 5C22.56503 5 23 5.4349698 23 6L23 24C23 24.56503 22.56503 25 22 25L8 25C7.4349698 25 7 24.56503 7 24L7 6C7 5.4349698 7.4349698 5 8 5 z M 11 11 A 1.0001 1.0001 0 1 0 11 13L15 13 A 1.0001 1.0001 0 1 0 15 11L11 11 z M 19 11 A 1 1 0 0 0 18 12 A 1 1 0 0 0 19 13 A 1 1 0 0 0 20 12 A 1 1 0 0 0 19 11 z M 11 15 A 1.0001 1.0001 0 1 0 11 17L15 17 A 1.0001 1.0001 0 1 0 15 15L11 15 z M 19 15 A 1 1 0 0 0 18 16 A 1 1 0 0 0 19 17 A 1 1 0 0 0 20 16 A 1 1 0 0 0 19 15 z M 11 19 A 1.0001 1.0001 0 1 0 11 21L15 21 A 1.0001 1.0001 0 1 0 15 19L11 19 z M 19 19 A 1 1 0 0 0 18 20 A 1 1 0 0 0 19 21 A 1 1 0 0 0 20 20 A 1 1 0 0 0 19 19 z" fill="#000" />
</svg>