<svg xmlns="http://www.w3.org/2000/svg" xmlns:xlink="http://www.w3.org/1999/xlink" viewBox="0 0 24 24" fill="#E2E2E2">
  <path d="M3 3L3 21L10 21L10 19L5 19L5 8L19 8L19 9L21 9L21 3L3 3 z M 7 11L7 13L9 13L9 11L7 11 z M 14 11L14 19L12 19L12 21C12 22.654 13.346 24 15 24L20 24L21 24C22.654 24 24 22.654 24 21L24 11L14 11 z M 16 13L22 13L22 21C22 21.546 21.558672 21.988094 21.013672 21.996094L21.013672 21.986328C20.480672 21.955328 20.008 21.550672 20 21.013672L20 19L16 19L16 13 z M 7 15L7 17L9 17L9 15L7 15 z" fill="#5aa7a7" />
</svg>